<svg xmlns="http://www.w3.org/2000/svg" viewBox="0 0 1200 800" width="100%" height="100%" style="background-color: #ffffff; font-family: Arial, sans-serif;">
  
  <defs>
    <marker id="arrow" viewBox="0 0 10 10" refX="9" refY="5" markerWidth="6" markerHeight="6" orient="auto-start-reverse">
      <path d="M 0 0 L 10 5 L 0 10 z" fill="#333" />
    </marker>
  </defs>

  <g id="streams" stroke="#555" stroke-width="1.5" fill="none" marker-end="url(#arrow)">
    <path d="M 50 100 L 120 100" />
    <path d="M 180 100 L 250 100 L 250 150 L 320 150" />
    <path d="M 480 150 L 550 150 L 550 220" />
    <path d="M 550 280 L 550 350 L 680 350" />
    <path d="M 720 350 L 760 350 L 760 450 L 780 450" />
    <path d="M 810 400 L 810 300 L 880 300" />
    <path d="M 810 520 L 810 600 L 880 600" />
    <path d="M 940 600 L 980 600 L 980 700 L 300 700 L 300 170 L 320 170" marker-end="none"/>
    <path d="M 300 170 L 320 170" />
    <path d="M 910 330 L 910 400 L 1100 400" />
    <path d="M 400 120 L 400 60 L 1100 60" />
  </g>

  <g font-size="12" fill="#333" font-weight="bold">
    <text x="10" y="104">Mosto</text>
    <text x="1110" y="404">Producto</text>
    <text x="1110" y="64">Drenaje</text>
    <text x="250" y="500">Vinazas retorno</text>
  </g>

  <g id="P-100">
    <circle cx="150" cy="100" r="30" fill="#fff" stroke="#333" stroke-width="2"/>
    <path d="M 140 80 Q 170 100 140 120" fill="none" stroke="#333" stroke-width="2"/>
    <rect x="135" y="130" width="30" height="10" fill="#fff" stroke="#333" stroke-width="2"/>
    <text x="135" y="155" font-size="14" fill="#000" font-weight="bold">P-100</text>
    <rect x="110" y="60" width="80" height="100" fill="transparent"/>
  </g>

  <g id="W-210">
    <rect x="320" y="120" width="160" height="60" rx="5" fill="#fff" stroke="#333" stroke-width="2"/>
    <line x1="340" y1="120" x2="340" y2="180" stroke="#333" stroke-width="2"/>
    <line x1="460" y1="120" x2="460" y2="180" stroke="#333" stroke-width="2"/>
    <line x1="340" y1="140" x2="460" y2="140" stroke="#333" stroke-width="1.5"/>
    <line x1="340" y1="160" x2="460" y2="160" stroke="#333" stroke-width="1.5"/>
    <text x="380" y="200" font-size="14" fill="#000" font-weight="bold">W-210</text>
    <rect x="310" y="110" width="180" height="100" fill="transparent"/>
  </g>

  <g id="W-220">
    <circle cx="550" cy="250" r="30" fill="#fff" stroke="#333" stroke-width="2"/>
    <polyline points="525,240 550,260 575,240" fill="none" stroke="#333" stroke-width="2"/>
    <text x="530" y="300" font-size="14" fill="#000" font-weight="bold">W-220</text>
    <rect x="510" y="210" width="80" height="100" fill="transparent"/>
  </g>

  <g id="V-100">
    <polygon points="680,340 720,360 680,360 720,340" fill="#fff" stroke="#333" stroke-width="2"/>
    <line x1="700" y1="350" x2="700" y2="335" stroke="#333" stroke-width="2"/>
    <line x1="695" y1="335" x2="705" y2="335" stroke="#333" stroke-width="2"/>
    <text x="680" y="380" font-size="14" fill="#000" font-weight="bold">V-100</text>
    <rect x="670" y="320" width="60" height="70" fill="transparent"/>
  </g>

  <g id="V-1">
    <rect x="780" y="400" width="60" height="120" rx="15" fill="#fff" stroke="#333" stroke-width="2"/>
    <text x="800" y="540" font-size="14" fill="#000" font-weight="bold">V-1</text>
    <rect x="770" y="390" width="80" height="160" fill="transparent"/>
  </g>

  <g id="W-310">
    <circle cx="910" cy="300" r="30" fill="#fff" stroke="#333" stroke-width="2"/>
    <polyline points="885,290 910,310 935,290" fill="none" stroke="#333" stroke-width="2"/>
    <text x="890" y="350" font-size="14" fill="#000" font-weight="bold">W-310</text>
    <rect x="870" y="260" width="80" height="100" fill="transparent"/>
  </g>

  <g id="P-200">
    <circle cx="910" cy="600" r="30" fill="#fff" stroke="#333" stroke-width="2"/>
    <path d="M 900 580 Q 930 600 900 620" fill="none" stroke="#333" stroke-width="2"/>
    <rect x="895" y="630" width="30" height="10" fill="#fff" stroke="#333" stroke-width="2"/>
    <text x="895" y="660" font-size="14" fill="#000" font-weight="bold">P-200</text>
    <rect x="870" y="560" width="80" height="110" fill="transparent"/>
  </g>

</svg>
