<svg width="1000" height="600" viewBox="0 0 1000 600" xmlns="http://www.w3.org/2000/svg">
  <style>
    .equipment {
      cursor: pointer;
      transition: all 0.3s ease;
    }
    .equipment:hover {
      filter: drop-shadow(0px 0px 8px rgba(0, 150, 255, 0.8));
      stroke-width: 3px;
    }
    .line {
      fill: none;
      stroke: #2c3e50;
      stroke-width: 2.5;
    }
    .stream-label {
      font-family: Arial, sans-serif;
      font-size: 13px;
      font-weight: bold;
      fill: #c0392b;
    }
    .eq-label {
      font-family: Arial, sans-serif;
      font-size: 14px;
      font-weight: bold;
      fill: #2c3e50;
    }
  </style>

  <defs>
    <marker id="arrow" viewBox="0 0 10 10" refX="9" refY="5" markerWidth="6" markerHeight="6" orient="auto-start-reverse">
      <path d="M 0 0 L 10 5 L 0 10 z" fill="#2c3e50" />
    </marker>
  </defs>

  <g id="streams">
    <path class="line" d="M 50,250 L 125,250" marker-end="url(#arrow)"/>
    <path class="line" d="M 175,250 L 300,250" marker-end="url(#arrow)"/>
    <path class="line" d="M 420,250 L 470,250" marker-end="url(#arrow)"/>
    <path class="line" d="M 530,250 L 585,250" marker-end="url(#arrow)"/>
    <path class="line" d="M 615,250 L 700,250" marker-end="url(#arrow)"/>
    <path class="line" d="M 740,200 L 740,150 L 360,150 L 360,220" marker-end="url(#arrow)"/>
    <path class="line" d="M 360,280 L 360,500 L 900,500" marker-end="url(#arrow)"/>
    <path class="line" d="M 740,360 L 740,425" marker-end="url(#arrow)"/>
    <path class="line" d="M 765,450 L 900,450" marker-end="url(#arrow)"/>
  </g>

  <g id="stream-labels">
    <text x="80" y="240" class="stream-label">1</text>
    <text x="230" y="240" class="stream-label">2</text>
    <text x="445" y="240" class="stream-label">3</text>
    <text x="550" y="240" class="stream-label">4</text>
    <text x="650" y="240" class="stream-label">5</text>
    <text x="550" y="140" class="stream-label">6</text>
    <text x="600" y="490" class="stream-label">7</text>
    <text x="750" y="400" class="stream-label">9</text>
    <text x="820" y="440" class="stream-label">10</text>
  </g>

  <g id="P-110" class="equipment">
    <title>Bomba Centrífuga P-110&#10;Haz clic para ver resultados</title>
    <circle cx="150" cy="250" r="25" fill="#e0f7fa" stroke="#006064" stroke-width="2"/>
    <polygon points="135,260 135,240 165,250" fill="#006064"/>
    <text x="150" y="295" text-anchor="middle" class="eq-label">P-110</text>
  </g>

  <g id="V-210" class="equipment">
    <title>Intercambiador Coraza/Tubos V-210&#10;Haz clic para ver resultados</title>
    <rect x="300" y="220" width="120" height="60" rx="5" fill="#fff3e0" stroke="#e65100" stroke-width="2"/>
    <path d="M 300 250 L 420 250" stroke="#e65100" stroke-width="2" stroke-dasharray="5,5"/>
    <text x="360" y="300" text-anchor="middle" class="eq-label">V-210</text>
  </g>

  <g id="V-310" class="equipment">
    <title>Calentador/Condensador V-310&#10;Haz clic para ver resultados</title>
    <circle cx="500" cy="250" r="30" fill="#fce4ec" stroke="#880e4f" stroke-width="2"/>
    <path d="M 470 250 L 530 250" stroke="#880e4f" stroke-width="2"/>
    <path d="M 500 220 L 500 280" stroke="#880e4f" stroke-width="2"/>
    <text x="500" y="300" text-anchor="middle" class="eq-label">V-310</text>
  </g>

  <g id="CV-411" class="equipment">
    <title>Válvula de Control 400-CV-411</title>
    <polygon points="585,240 585,260 615,240 615,260" fill="#ffffff" stroke="#2c3e50" stroke-width="2"/>
  </g>

  <g id="K-410" class="equipment">
    <title>Tanque Flash K-410&#10;Haz clic para ver resultados</title>
    <path d="M 700 220 A 40 20 0 0 1 780 220 L 780 340 A 40 20 0 0 1 700 340 Z" fill="#e8f5e9" stroke="#1b5e20" stroke-width="2"/>
    <text x="740" y="290" text-anchor="middle" class="eq-label">K-410</text>
  </g>

  <g id="P-510" class="equipment">
    <title>Bomba Centrífuga P-510&#10;Haz clic para ver resultados</title>
    <circle cx="740" cy="450" r="25" fill="#e0f7fa" stroke="#006064" stroke-width="2"/>
    <polygon points="725,460 725,440 755,450" fill="#006064"/>
    <text x="740" y="495" text-anchor="middle" class="eq-label">P-510</text>
  </g>

  <script type="text/javascript">
    <![CDATA[
      // Este script se ejecuta si abres el SVG en un navegador.
      // Puedes reemplazar esta lógica en tu frontend para conectar con la API de BioSTEAM.
      document.addEventListener('DOMContentLoaded', () => {
        const equipos = document.querySelectorAll('.equipment');
        
        equipos.forEach(equipo => {
          equipo.addEventListener('click', (event) => {
            const idEquipo = equipo.getAttribute('id');
            // Aquí llamarías a la función que extrae los balances de BioSTEAM
            alert(`Mostrando panel de datos (BioSTEAM) para el equipo: ${idEquipo}`);
          });
        });
      });
    ]]>
  </script>
</svg>
